<mxfile host="app.diagrams.net" modified="2022-11-14T14:02:17.314Z" agent="5.0 (Windows NT 10.0; Win64; x64) AppleWebKit/537.36 (KHTML, like Gecko) Chrome/107.0.0.0 Safari/537.36" etag="_LxkCkqEDE8AfUsssmLl" version="20.5.3" type="github" pages="2">
  <diagram id="QF-60mV_yGzeQ4S5Q-dH" name="Страница 1">
    <mxGraphModel dx="1221" dy="634" grid="1" gridSize="10" guides="1" tooltips="1" connect="1" arrows="1" fold="1" page="1" pageScale="1" pageWidth="827" pageHeight="1169" math="0" shadow="0">
      <root>
        <mxCell id="0" />
        <mxCell id="1" parent="0" />
        <mxCell id="Q7s6cMPQlI8H4LpDXkdk-3" style="edgeStyle=orthogonalEdgeStyle;rounded=0;orthogonalLoop=1;jettySize=auto;html=1;" edge="1" parent="1" source="Q7s6cMPQlI8H4LpDXkdk-1">
          <mxGeometry relative="1" as="geometry">
            <mxPoint x="405" y="70" as="targetPoint" />
          </mxGeometry>
        </mxCell>
        <mxCell id="Q7s6cMPQlI8H4LpDXkdk-1" value="Початок&amp;nbsp;" style="rounded=1;whiteSpace=wrap;html=1;fillColor=#FCFCFC;" vertex="1" parent="1">
          <mxGeometry x="350" y="10" width="110" height="20" as="geometry" />
        </mxCell>
        <mxCell id="Q7s6cMPQlI8H4LpDXkdk-6" style="edgeStyle=orthogonalEdgeStyle;rounded=0;orthogonalLoop=1;jettySize=auto;html=1;" edge="1" parent="1" source="Q7s6cMPQlI8H4LpDXkdk-4">
          <mxGeometry relative="1" as="geometry">
            <mxPoint x="405.5200000000001" y="130" as="targetPoint" />
          </mxGeometry>
        </mxCell>
        <mxCell id="Q7s6cMPQlI8H4LpDXkdk-4" value="x , xp, xk,dx,R,y" style="rounded=0;whiteSpace=wrap;html=1;fillColor=#FCFCFC;" vertex="1" parent="1">
          <mxGeometry x="342.5" y="70" width="125" height="20" as="geometry" />
        </mxCell>
        <mxCell id="Q7s6cMPQlI8H4LpDXkdk-9" style="edgeStyle=orthogonalEdgeStyle;rounded=0;orthogonalLoop=1;jettySize=auto;html=1;" edge="1" parent="1" source="Q7s6cMPQlI8H4LpDXkdk-7">
          <mxGeometry relative="1" as="geometry">
            <mxPoint x="405.5200000000001" y="190" as="targetPoint" />
          </mxGeometry>
        </mxCell>
        <mxCell id="Q7s6cMPQlI8H4LpDXkdk-7" value="x=xp" style="rounded=0;whiteSpace=wrap;html=1;fillColor=#FCFCFC;" vertex="1" parent="1">
          <mxGeometry x="347.5" y="130" width="115" height="20" as="geometry" />
        </mxCell>
        <mxCell id="Q7s6cMPQlI8H4LpDXkdk-12" style="edgeStyle=orthogonalEdgeStyle;rounded=0;orthogonalLoop=1;jettySize=auto;html=1;" edge="1" parent="1" source="Q7s6cMPQlI8H4LpDXkdk-10" target="Q7s6cMPQlI8H4LpDXkdk-14">
          <mxGeometry relative="1" as="geometry">
            <mxPoint x="530" y="250" as="targetPoint" />
            <Array as="points">
              <mxPoint x="530" y="215" />
            </Array>
          </mxGeometry>
        </mxCell>
        <mxCell id="Q7s6cMPQlI8H4LpDXkdk-59" style="edgeStyle=orthogonalEdgeStyle;rounded=0;orthogonalLoop=1;jettySize=auto;html=1;entryX=0.455;entryY=0;entryDx=0;entryDy=0;entryPerimeter=0;" edge="1" parent="1" source="Q7s6cMPQlI8H4LpDXkdk-10" target="Q7s6cMPQlI8H4LpDXkdk-64">
          <mxGeometry relative="1" as="geometry">
            <mxPoint x="396.2777777777778" y="810" as="targetPoint" />
            <Array as="points">
              <mxPoint x="170" y="215" />
              <mxPoint x="170" y="760" />
              <mxPoint x="390" y="760" />
            </Array>
          </mxGeometry>
        </mxCell>
        <mxCell id="Q7s6cMPQlI8H4LpDXkdk-10" value="x&amp;lt;=xk" style="rhombus;whiteSpace=wrap;html=1;fillColor=#FCFCFC;" vertex="1" parent="1">
          <mxGeometry x="362.5" y="190" width="85" height="50" as="geometry" />
        </mxCell>
        <mxCell id="Q7s6cMPQlI8H4LpDXkdk-16" style="edgeStyle=orthogonalEdgeStyle;rounded=0;orthogonalLoop=1;jettySize=auto;html=1;" edge="1" parent="1" source="Q7s6cMPQlI8H4LpDXkdk-14" target="Q7s6cMPQlI8H4LpDXkdk-17">
          <mxGeometry relative="1" as="geometry">
            <mxPoint x="650" y="290" as="targetPoint" />
            <Array as="points">
              <mxPoint x="650" y="255" />
            </Array>
          </mxGeometry>
        </mxCell>
        <mxCell id="Q7s6cMPQlI8H4LpDXkdk-21" style="edgeStyle=orthogonalEdgeStyle;rounded=0;orthogonalLoop=1;jettySize=auto;html=1;" edge="1" parent="1" source="Q7s6cMPQlI8H4LpDXkdk-14" target="Q7s6cMPQlI8H4LpDXkdk-26">
          <mxGeometry relative="1" as="geometry">
            <mxPoint x="440" y="300" as="targetPoint" />
            <Array as="points">
              <mxPoint x="440" y="255" />
            </Array>
          </mxGeometry>
        </mxCell>
        <mxCell id="Q7s6cMPQlI8H4LpDXkdk-14" value="x &amp;lt;= 0" style="rhombus;whiteSpace=wrap;html=1;fillColor=#FCFCFC;" vertex="1" parent="1">
          <mxGeometry x="490" y="230" width="80" height="50" as="geometry" />
        </mxCell>
        <mxCell id="Q7s6cMPQlI8H4LpDXkdk-17" value="y = (-R / 6) * (x + 6)" style="rounded=0;whiteSpace=wrap;html=1;fillColor=#FCFCFC;" vertex="1" parent="1">
          <mxGeometry x="590" y="280" width="120" height="20" as="geometry" />
        </mxCell>
        <mxCell id="Q7s6cMPQlI8H4LpDXkdk-18" value="+" style="text;html=1;strokeColor=none;fillColor=none;align=center;verticalAlign=middle;whiteSpace=wrap;rounded=0;" vertex="1" parent="1">
          <mxGeometry x="550" y="230" width="60" height="30" as="geometry" />
        </mxCell>
        <mxCell id="Q7s6cMPQlI8H4LpDXkdk-19" value="+" style="text;html=1;strokeColor=none;fillColor=none;align=center;verticalAlign=middle;whiteSpace=wrap;rounded=0;" vertex="1" parent="1">
          <mxGeometry x="440" y="190" width="60" height="30" as="geometry" />
        </mxCell>
        <mxCell id="Q7s6cMPQlI8H4LpDXkdk-23" value="-" style="text;html=1;strokeColor=none;fillColor=none;align=center;verticalAlign=middle;whiteSpace=wrap;rounded=0;" vertex="1" parent="1">
          <mxGeometry x="440" y="230" width="60" height="30" as="geometry" />
        </mxCell>
        <mxCell id="Q7s6cMPQlI8H4LpDXkdk-30" style="edgeStyle=orthogonalEdgeStyle;rounded=0;orthogonalLoop=1;jettySize=auto;html=1;" edge="1" parent="1" source="Q7s6cMPQlI8H4LpDXkdk-26">
          <mxGeometry relative="1" as="geometry">
            <mxPoint x="540" y="350" as="targetPoint" />
            <Array as="points">
              <mxPoint x="540" y="330" />
            </Array>
          </mxGeometry>
        </mxCell>
        <mxCell id="Q7s6cMPQlI8H4LpDXkdk-36" style="edgeStyle=orthogonalEdgeStyle;rounded=0;orthogonalLoop=1;jettySize=auto;html=1;" edge="1" parent="1" source="Q7s6cMPQlI8H4LpDXkdk-26" target="Q7s6cMPQlI8H4LpDXkdk-40">
          <mxGeometry relative="1" as="geometry">
            <mxPoint x="350" y="390" as="targetPoint" />
            <Array as="points">
              <mxPoint x="350" y="330" />
              <mxPoint x="350" y="350" />
            </Array>
          </mxGeometry>
        </mxCell>
        <mxCell id="Q7s6cMPQlI8H4LpDXkdk-26" value="(0 &amp;lt; x &amp;amp;&amp;amp; x &amp;lt;= R)" style="rhombus;whiteSpace=wrap;html=1;fillColor=#FCFCFC;" vertex="1" parent="1">
          <mxGeometry x="390" y="310" width="110" height="40" as="geometry" />
        </mxCell>
        <mxCell id="Q7s6cMPQlI8H4LpDXkdk-32" value="+" style="text;html=1;strokeColor=none;fillColor=none;align=center;verticalAlign=middle;whiteSpace=wrap;rounded=0;" vertex="1" parent="1">
          <mxGeometry x="490" y="300" width="60" height="30" as="geometry" />
        </mxCell>
        <mxCell id="Q7s6cMPQlI8H4LpDXkdk-33" value="-" style="text;html=1;strokeColor=none;fillColor=none;align=center;verticalAlign=middle;whiteSpace=wrap;rounded=0;" vertex="1" parent="1">
          <mxGeometry x="342.5" y="300" width="60" height="30" as="geometry" />
        </mxCell>
        <mxCell id="Q7s6cMPQlI8H4LpDXkdk-39" value="&amp;nbsp;y = -sqrt(R * R - x * x)" style="rounded=0;whiteSpace=wrap;html=1;fillColor=#FCFCFC;" vertex="1" parent="1">
          <mxGeometry x="480" y="350" width="130" height="20" as="geometry" />
        </mxCell>
        <mxCell id="Q7s6cMPQlI8H4LpDXkdk-42" style="edgeStyle=orthogonalEdgeStyle;rounded=0;orthogonalLoop=1;jettySize=auto;html=1;" edge="1" parent="1" source="Q7s6cMPQlI8H4LpDXkdk-40" target="Q7s6cMPQlI8H4LpDXkdk-45">
          <mxGeometry relative="1" as="geometry">
            <mxPoint x="460" y="450" as="targetPoint" />
            <Array as="points">
              <mxPoint x="460" y="410" />
              <mxPoint x="460" y="430" />
            </Array>
          </mxGeometry>
        </mxCell>
        <mxCell id="Q7s6cMPQlI8H4LpDXkdk-47" style="edgeStyle=orthogonalEdgeStyle;rounded=0;orthogonalLoop=1;jettySize=auto;html=1;" edge="1" parent="1" source="Q7s6cMPQlI8H4LpDXkdk-40">
          <mxGeometry relative="1" as="geometry">
            <mxPoint x="240" y="440" as="targetPoint" />
          </mxGeometry>
        </mxCell>
        <mxCell id="Q7s6cMPQlI8H4LpDXkdk-40" value="(R &amp;lt; x &amp;amp;&amp;amp; x &amp;lt;= 2 * R)" style="rhombus;whiteSpace=wrap;html=1;fillColor=#FCFCFC;" vertex="1" parent="1">
          <mxGeometry x="290" y="390" width="120" height="40" as="geometry" />
        </mxCell>
        <mxCell id="Q7s6cMPQlI8H4LpDXkdk-44" value="+" style="text;html=1;strokeColor=none;fillColor=none;align=center;verticalAlign=middle;whiteSpace=wrap;rounded=0;" vertex="1" parent="1">
          <mxGeometry x="400" y="380" width="60" height="30" as="geometry" />
        </mxCell>
        <mxCell id="Q7s6cMPQlI8H4LpDXkdk-45" value="y = sqrt(R * R - (x - 2 * R) * (x - 2 * R))" style="rounded=0;whiteSpace=wrap;html=1;fillColor=#FCFCFC;" vertex="1" parent="1">
          <mxGeometry x="400" y="450" width="120" height="50" as="geometry" />
        </mxCell>
        <mxCell id="Q7s6cMPQlI8H4LpDXkdk-49" value="-" style="text;html=1;strokeColor=none;fillColor=none;align=center;verticalAlign=middle;whiteSpace=wrap;rounded=0;" vertex="1" parent="1">
          <mxGeometry x="240" y="380" width="60" height="30" as="geometry" />
        </mxCell>
        <mxCell id="Q7s6cMPQlI8H4LpDXkdk-50" value="y = R" style="rounded=0;whiteSpace=wrap;html=1;fillColor=#FCFCFC;" vertex="1" parent="1">
          <mxGeometry x="190" y="440" width="90" height="30" as="geometry" />
        </mxCell>
        <mxCell id="Q7s6cMPQlI8H4LpDXkdk-51" value="" style="endArrow=none;html=1;rounded=0;exitX=0.5;exitY=1;exitDx=0;exitDy=0;entryX=0.583;entryY=1;entryDx=0;entryDy=0;entryPerimeter=0;" edge="1" parent="1" source="Q7s6cMPQlI8H4LpDXkdk-50" target="Q7s6cMPQlI8H4LpDXkdk-45">
          <mxGeometry width="50" height="50" relative="1" as="geometry">
            <mxPoint x="320" y="380" as="sourcePoint" />
            <mxPoint x="370" y="330" as="targetPoint" />
            <Array as="points">
              <mxPoint x="235" y="540" />
              <mxPoint x="470" y="540" />
            </Array>
          </mxGeometry>
        </mxCell>
        <mxCell id="Q7s6cMPQlI8H4LpDXkdk-52" value="" style="endArrow=none;html=1;rounded=0;entryX=0.5;entryY=1;entryDx=0;entryDy=0;" edge="1" parent="1" target="Q7s6cMPQlI8H4LpDXkdk-39">
          <mxGeometry width="50" height="50" relative="1" as="geometry">
            <mxPoint x="350" y="540" as="sourcePoint" />
            <mxPoint x="370" y="430" as="targetPoint" />
            <Array as="points">
              <mxPoint x="350" y="590" />
              <mxPoint x="545" y="590" />
            </Array>
          </mxGeometry>
        </mxCell>
        <mxCell id="Q7s6cMPQlI8H4LpDXkdk-53" value="" style="endArrow=none;html=1;rounded=0;entryX=0.5;entryY=1;entryDx=0;entryDy=0;" edge="1" parent="1" target="Q7s6cMPQlI8H4LpDXkdk-17">
          <mxGeometry width="50" height="50" relative="1" as="geometry">
            <mxPoint x="460" y="590" as="sourcePoint" />
            <mxPoint x="510" y="430" as="targetPoint" />
            <Array as="points">
              <mxPoint x="460" y="640" />
              <mxPoint x="650" y="640" />
            </Array>
          </mxGeometry>
        </mxCell>
        <mxCell id="Q7s6cMPQlI8H4LpDXkdk-54" value="" style="endArrow=classic;html=1;rounded=0;" edge="1" parent="1">
          <mxGeometry width="50" height="50" relative="1" as="geometry">
            <mxPoint x="560" y="640" as="sourcePoint" />
            <mxPoint x="560" y="670" as="targetPoint" />
          </mxGeometry>
        </mxCell>
        <mxCell id="Q7s6cMPQlI8H4LpDXkdk-57" style="edgeStyle=orthogonalEdgeStyle;rounded=0;orthogonalLoop=1;jettySize=auto;html=1;" edge="1" parent="1">
          <mxGeometry relative="1" as="geometry">
            <mxPoint x="560" y="760" as="sourcePoint" />
            <mxPoint x="410" y="170" as="targetPoint" />
            <Array as="points">
              <mxPoint x="560" y="820" />
              <mxPoint x="740" y="820" />
              <mxPoint x="740" y="170" />
            </Array>
          </mxGeometry>
        </mxCell>
        <mxCell id="Q7s6cMPQlI8H4LpDXkdk-64" value="Кінець" style="rounded=1;whiteSpace=wrap;html=1;fillColor=#FCFCFC;" vertex="1" parent="1">
          <mxGeometry x="340" y="890" width="110" height="20" as="geometry" />
        </mxCell>
        <mxCell id="Q7s6cMPQlI8H4LpDXkdk-65" value="-" style="text;html=1;strokeColor=none;fillColor=none;align=center;verticalAlign=middle;whiteSpace=wrap;rounded=0;" vertex="1" parent="1">
          <mxGeometry x="310" y="180" width="60" height="30" as="geometry" />
        </mxCell>
        <mxCell id="Q7s6cMPQlI8H4LpDXkdk-67" value="x +=dx" style="rounded=0;whiteSpace=wrap;html=1;fillColor=#FCFCFC;" vertex="1" parent="1">
          <mxGeometry x="515" y="730" width="95" height="30" as="geometry" />
        </mxCell>
        <mxCell id="Q7s6cMPQlI8H4LpDXkdk-69" value="" style="endArrow=classic;html=1;rounded=0;entryX=0.463;entryY=-0.041;entryDx=0;entryDy=0;entryPerimeter=0;" edge="1" parent="1" target="Q7s6cMPQlI8H4LpDXkdk-67">
          <mxGeometry width="50" height="50" relative="1" as="geometry">
            <mxPoint x="559" y="700" as="sourcePoint" />
            <mxPoint x="550" y="720" as="targetPoint" />
          </mxGeometry>
        </mxCell>
        <mxCell id="Q7s6cMPQlI8H4LpDXkdk-70" value="x y" style="shape=document;whiteSpace=wrap;html=1;boundedLbl=1;fillColor=#FCFCFC;" vertex="1" parent="1">
          <mxGeometry x="520" y="670" width="70" height="40" as="geometry" />
        </mxCell>
      </root>
    </mxGraphModel>
  </diagram>
  <diagram id="bQ78AimiwVEXcPmwS-Ha" name="Страница 2">
    <mxGraphModel dx="2483" dy="955" grid="1" gridSize="10" guides="1" tooltips="1" connect="1" arrows="1" fold="1" page="1" pageScale="1" pageWidth="827" pageHeight="1169" math="0" shadow="0">
      <root>
        <mxCell id="0" />
        <mxCell id="1" parent="0" />
        <mxCell id="vlauKVE98PmZVsNZsbMP-3" style="edgeStyle=orthogonalEdgeStyle;rounded=0;orthogonalLoop=1;jettySize=auto;html=1;" edge="1" parent="1" source="vlauKVE98PmZVsNZsbMP-1">
          <mxGeometry relative="1" as="geometry">
            <mxPoint x="395" y="95" as="targetPoint" />
          </mxGeometry>
        </mxCell>
        <mxCell id="vlauKVE98PmZVsNZsbMP-1" value="" style="ellipse;whiteSpace=wrap;html=1;aspect=fixed;fillColor=#000000;" vertex="1" parent="1">
          <mxGeometry x="370" y="10" width="50" height="50" as="geometry" />
        </mxCell>
        <mxCell id="lGiSETrBwDVrnbX7mCTf-2" style="edgeStyle=orthogonalEdgeStyle;rounded=0;orthogonalLoop=1;jettySize=auto;html=1;" edge="1" parent="1" source="vlauKVE98PmZVsNZsbMP-4">
          <mxGeometry relative="1" as="geometry">
            <mxPoint x="395.51428571428573" y="175" as="targetPoint" />
          </mxGeometry>
        </mxCell>
        <mxCell id="vlauKVE98PmZVsNZsbMP-4" value="ввід x,xp,xk,dx,R" style="rounded=1;whiteSpace=wrap;html=1;fillColor=#FCFCFC;" vertex="1" parent="1">
          <mxGeometry x="337.5" y="100" width="115" height="30" as="geometry" />
        </mxCell>
        <mxCell id="lGiSETrBwDVrnbX7mCTf-5" style="edgeStyle=orthogonalEdgeStyle;rounded=0;orthogonalLoop=1;jettySize=auto;html=1;" edge="1" parent="1" source="lGiSETrBwDVrnbX7mCTf-3">
          <mxGeometry relative="1" as="geometry">
            <mxPoint x="396.7714285714285" y="255" as="targetPoint" />
          </mxGeometry>
        </mxCell>
        <mxCell id="lGiSETrBwDVrnbX7mCTf-3" value="x = xp" style="rounded=1;whiteSpace=wrap;html=1;fillColor=#FCFCFC;" vertex="1" parent="1">
          <mxGeometry x="337.5" y="180" width="117.5" height="30" as="geometry" />
        </mxCell>
        <mxCell id="lGiSETrBwDVrnbX7mCTf-8" style="edgeStyle=orthogonalEdgeStyle;rounded=0;orthogonalLoop=1;jettySize=auto;html=1;" edge="1" parent="1" source="lGiSETrBwDVrnbX7mCTf-6" target="lGiSETrBwDVrnbX7mCTf-7">
          <mxGeometry relative="1" as="geometry" />
        </mxCell>
        <mxCell id="lGiSETrBwDVrnbX7mCTf-6" value="" style="rhombus;whiteSpace=wrap;html=1;fillColor=#FCFCFC;" vertex="1" parent="1">
          <mxGeometry x="374.38" y="260" width="43.75" height="40" as="geometry" />
        </mxCell>
        <mxCell id="lGiSETrBwDVrnbX7mCTf-12" style="edgeStyle=orthogonalEdgeStyle;rounded=0;orthogonalLoop=1;jettySize=auto;html=1;" edge="1" parent="1" source="lGiSETrBwDVrnbX7mCTf-7">
          <mxGeometry relative="1" as="geometry">
            <mxPoint x="510" y="390" as="targetPoint" />
            <Array as="points">
              <mxPoint x="510" y="360" />
              <mxPoint x="510" y="390" />
            </Array>
          </mxGeometry>
        </mxCell>
        <mxCell id="sn_to2yJBPLg6fdQf5K--24" style="edgeStyle=orthogonalEdgeStyle;rounded=0;orthogonalLoop=1;jettySize=auto;html=1;" edge="1" parent="1" source="lGiSETrBwDVrnbX7mCTf-7">
          <mxGeometry relative="1" as="geometry">
            <mxPoint x="395.875" y="660" as="targetPoint" />
          </mxGeometry>
        </mxCell>
        <mxCell id="lGiSETrBwDVrnbX7mCTf-7" value="" style="rhombus;whiteSpace=wrap;html=1;fillColor=#FCFCFC;" vertex="1" parent="1">
          <mxGeometry x="374" y="340" width="43.75" height="40" as="geometry" />
        </mxCell>
        <mxCell id="sn_to2yJBPLg6fdQf5K--3" style="edgeStyle=orthogonalEdgeStyle;rounded=0;orthogonalLoop=1;jettySize=auto;html=1;" edge="1" parent="1" source="sn_to2yJBPLg6fdQf5K--1" target="sn_to2yJBPLg6fdQf5K--2">
          <mxGeometry relative="1" as="geometry" />
        </mxCell>
        <mxCell id="sn_to2yJBPLg6fdQf5K--7" style="edgeStyle=orthogonalEdgeStyle;rounded=0;orthogonalLoop=1;jettySize=auto;html=1;" edge="1" parent="1" source="sn_to2yJBPLg6fdQf5K--1">
          <mxGeometry relative="1" as="geometry">
            <mxPoint x="630" y="410" as="targetPoint" />
          </mxGeometry>
        </mxCell>
        <mxCell id="sn_to2yJBPLg6fdQf5K--1" value="" style="rhombus;whiteSpace=wrap;html=1;fillColor=#FCFCFC;" vertex="1" parent="1">
          <mxGeometry x="480" y="390" width="50" height="40" as="geometry" />
        </mxCell>
        <mxCell id="sn_to2yJBPLg6fdQf5K--5" style="edgeStyle=orthogonalEdgeStyle;rounded=0;orthogonalLoop=1;jettySize=auto;html=1;" edge="1" parent="1" source="sn_to2yJBPLg6fdQf5K--2" target="sn_to2yJBPLg6fdQf5K--4">
          <mxGeometry relative="1" as="geometry" />
        </mxCell>
        <mxCell id="sn_to2yJBPLg6fdQf5K--9" style="edgeStyle=orthogonalEdgeStyle;rounded=0;orthogonalLoop=1;jettySize=auto;html=1;" edge="1" parent="1" source="sn_to2yJBPLg6fdQf5K--2">
          <mxGeometry relative="1" as="geometry">
            <mxPoint x="630" y="480" as="targetPoint" />
          </mxGeometry>
        </mxCell>
        <mxCell id="sn_to2yJBPLg6fdQf5K--2" value="" style="rhombus;whiteSpace=wrap;html=1;fillColor=#FCFCFC;" vertex="1" parent="1">
          <mxGeometry x="480" y="460" width="50" height="40" as="geometry" />
        </mxCell>
        <mxCell id="sn_to2yJBPLg6fdQf5K--11" style="edgeStyle=orthogonalEdgeStyle;rounded=0;orthogonalLoop=1;jettySize=auto;html=1;" edge="1" parent="1" source="sn_to2yJBPLg6fdQf5K--4">
          <mxGeometry relative="1" as="geometry">
            <mxPoint x="630" y="550" as="targetPoint" />
          </mxGeometry>
        </mxCell>
        <mxCell id="sn_to2yJBPLg6fdQf5K--21" style="edgeStyle=orthogonalEdgeStyle;rounded=0;orthogonalLoop=1;jettySize=auto;html=1;" edge="1" parent="1" source="sn_to2yJBPLg6fdQf5K--4">
          <mxGeometry relative="1" as="geometry">
            <mxPoint x="505" y="620" as="targetPoint" />
          </mxGeometry>
        </mxCell>
        <mxCell id="sn_to2yJBPLg6fdQf5K--4" value="" style="rhombus;whiteSpace=wrap;html=1;fillColor=#FCFCFC;" vertex="1" parent="1">
          <mxGeometry x="480" y="530" width="50" height="40" as="geometry" />
        </mxCell>
        <mxCell id="sn_to2yJBPLg6fdQf5K--13" value="[x &amp;lt;= 0]" style="text;html=1;strokeColor=none;fillColor=none;align=center;verticalAlign=middle;whiteSpace=wrap;rounded=0;" vertex="1" parent="1">
          <mxGeometry x="520" y="380" width="60" height="30" as="geometry" />
        </mxCell>
        <mxCell id="sn_to2yJBPLg6fdQf5K--14" value="[0 &amp;lt; x &amp;amp;&amp;amp; x &amp;lt;= R]" style="text;html=1;strokeColor=none;fillColor=none;align=center;verticalAlign=middle;whiteSpace=wrap;rounded=0;" vertex="1" parent="1">
          <mxGeometry x="520" y="450" width="100" height="30" as="geometry" />
        </mxCell>
        <mxCell id="sn_to2yJBPLg6fdQf5K--15" value="[R &amp;lt; x &amp;amp;&amp;amp; x &amp;lt;= 2 * R]" style="text;html=1;strokeColor=none;fillColor=none;align=center;verticalAlign=middle;whiteSpace=wrap;rounded=0;" vertex="1" parent="1">
          <mxGeometry x="520" y="520" width="120" height="30" as="geometry" />
        </mxCell>
        <mxCell id="sn_to2yJBPLg6fdQf5K--16" value="[x &amp;lt;= xk]" style="text;html=1;strokeColor=none;fillColor=none;align=center;verticalAlign=middle;whiteSpace=wrap;rounded=0;" vertex="1" parent="1">
          <mxGeometry x="414" y="330" width="60" height="30" as="geometry" />
        </mxCell>
        <mxCell id="sn_to2yJBPLg6fdQf5K--27" style="edgeStyle=orthogonalEdgeStyle;rounded=0;orthogonalLoop=1;jettySize=auto;html=1;" edge="1" parent="1" source="sn_to2yJBPLg6fdQf5K--17">
          <mxGeometry relative="1" as="geometry">
            <mxPoint x="810" y="410" as="targetPoint" />
            <Array as="points">
              <mxPoint x="810" y="410" />
            </Array>
          </mxGeometry>
        </mxCell>
        <mxCell id="sn_to2yJBPLg6fdQf5K--17" value="y = (-R / 6) * (x + 6)" style="rounded=1;whiteSpace=wrap;html=1;fillColor=#FCFCFC;" vertex="1" parent="1">
          <mxGeometry x="630" y="400" width="140" height="20" as="geometry" />
        </mxCell>
        <mxCell id="sn_to2yJBPLg6fdQf5K--29" style="edgeStyle=orthogonalEdgeStyle;rounded=0;orthogonalLoop=1;jettySize=auto;html=1;" edge="1" parent="1" source="sn_to2yJBPLg6fdQf5K--18">
          <mxGeometry relative="1" as="geometry">
            <mxPoint x="810" y="480" as="targetPoint" />
          </mxGeometry>
        </mxCell>
        <mxCell id="sn_to2yJBPLg6fdQf5K--18" value="y = -sqrt(R * R - x * x)" style="rounded=1;whiteSpace=wrap;html=1;fillColor=#FCFCFC;" vertex="1" parent="1">
          <mxGeometry x="630" y="470" width="140" height="20" as="geometry" />
        </mxCell>
        <mxCell id="sn_to2yJBPLg6fdQf5K--31" style="edgeStyle=orthogonalEdgeStyle;rounded=0;orthogonalLoop=1;jettySize=auto;html=1;" edge="1" parent="1" source="sn_to2yJBPLg6fdQf5K--19">
          <mxGeometry relative="1" as="geometry">
            <mxPoint x="810" y="550" as="targetPoint" />
            <Array as="points">
              <mxPoint x="810" y="550" />
            </Array>
          </mxGeometry>
        </mxCell>
        <mxCell id="sn_to2yJBPLg6fdQf5K--19" value="y = sqrt(R * R - (x - 2 * R) * (x - 2 * R))" style="rounded=1;whiteSpace=wrap;html=1;fillColor=#FCFCFC;" vertex="1" parent="1">
          <mxGeometry x="630" y="535" width="140" height="30" as="geometry" />
        </mxCell>
        <mxCell id="sn_to2yJBPLg6fdQf5K--38" style="edgeStyle=orthogonalEdgeStyle;rounded=0;orthogonalLoop=1;jettySize=auto;html=1;" edge="1" parent="1" source="sn_to2yJBPLg6fdQf5K--22">
          <mxGeometry relative="1" as="geometry">
            <mxPoint x="506.7714285714285" y="690" as="targetPoint" />
          </mxGeometry>
        </mxCell>
        <mxCell id="sn_to2yJBPLg6fdQf5K--22" value="y = R" style="rounded=1;whiteSpace=wrap;html=1;fillColor=#FCFCFC;" vertex="1" parent="1">
          <mxGeometry x="452.5" y="620" width="107.5" height="20" as="geometry" />
        </mxCell>
        <mxCell id="sn_to2yJBPLg6fdQf5K--25" value="" style="ellipse;whiteSpace=wrap;html=1;aspect=fixed;fillColor=#000000;" vertex="1" parent="1">
          <mxGeometry x="375.88" y="660" width="40" height="40" as="geometry" />
        </mxCell>
        <mxCell id="sn_to2yJBPLg6fdQf5K--34" style="edgeStyle=orthogonalEdgeStyle;rounded=0;orthogonalLoop=1;jettySize=auto;html=1;" edge="1" parent="1" source="sn_to2yJBPLg6fdQf5K--32" target="sn_to2yJBPLg6fdQf5K--33">
          <mxGeometry relative="1" as="geometry" />
        </mxCell>
        <mxCell id="sn_to2yJBPLg6fdQf5K--32" value="" style="rhombus;whiteSpace=wrap;html=1;fillColor=#FFFFFF;" vertex="1" parent="1">
          <mxGeometry x="810" y="390" width="40" height="40" as="geometry" />
        </mxCell>
        <mxCell id="sn_to2yJBPLg6fdQf5K--36" style="edgeStyle=orthogonalEdgeStyle;rounded=0;orthogonalLoop=1;jettySize=auto;html=1;" edge="1" parent="1" source="sn_to2yJBPLg6fdQf5K--33" target="sn_to2yJBPLg6fdQf5K--35">
          <mxGeometry relative="1" as="geometry" />
        </mxCell>
        <mxCell id="sn_to2yJBPLg6fdQf5K--33" value="" style="rhombus;whiteSpace=wrap;html=1;fillColor=#FFFFFF;" vertex="1" parent="1">
          <mxGeometry x="810" y="460" width="40" height="40" as="geometry" />
        </mxCell>
        <mxCell id="sn_to2yJBPLg6fdQf5K--41" style="edgeStyle=orthogonalEdgeStyle;rounded=0;orthogonalLoop=1;jettySize=auto;html=1;" edge="1" parent="1" source="sn_to2yJBPLg6fdQf5K--35">
          <mxGeometry relative="1" as="geometry">
            <mxPoint x="530" y="710" as="targetPoint" />
            <Array as="points">
              <mxPoint x="830" y="710" />
            </Array>
          </mxGeometry>
        </mxCell>
        <mxCell id="sn_to2yJBPLg6fdQf5K--35" value="" style="rhombus;whiteSpace=wrap;html=1;fillColor=#FFFFFF;" vertex="1" parent="1">
          <mxGeometry x="810" y="530" width="40" height="40" as="geometry" />
        </mxCell>
        <mxCell id="sn_to2yJBPLg6fdQf5K--43" style="edgeStyle=orthogonalEdgeStyle;rounded=0;orthogonalLoop=1;jettySize=auto;html=1;" edge="1" parent="1" source="sn_to2yJBPLg6fdQf5K--39">
          <mxGeometry relative="1" as="geometry">
            <mxPoint x="504.88571428571436" y="760.0097959183672" as="targetPoint" />
          </mxGeometry>
        </mxCell>
        <mxCell id="sn_to2yJBPLg6fdQf5K--39" value="" style="rhombus;whiteSpace=wrap;html=1;fillColor=#FFFFFF;" vertex="1" parent="1">
          <mxGeometry x="483.13" y="690" width="43.75" height="40" as="geometry" />
        </mxCell>
        <mxCell id="sn_to2yJBPLg6fdQf5K--46" style="edgeStyle=orthogonalEdgeStyle;rounded=0;orthogonalLoop=1;jettySize=auto;html=1;" edge="1" parent="1" source="sn_to2yJBPLg6fdQf5K--44" target="sn_to2yJBPLg6fdQf5K--45">
          <mxGeometry relative="1" as="geometry" />
        </mxCell>
        <mxCell id="sn_to2yJBPLg6fdQf5K--44" value="вивід x y" style="rounded=1;whiteSpace=wrap;html=1;fillColor=#FFFFFF;" vertex="1" parent="1">
          <mxGeometry x="455" y="760" width="103.75" height="20" as="geometry" />
        </mxCell>
        <mxCell id="sn_to2yJBPLg6fdQf5K--50" style="edgeStyle=orthogonalEdgeStyle;rounded=0;orthogonalLoop=1;jettySize=auto;html=1;" edge="1" parent="1" source="sn_to2yJBPLg6fdQf5K--45">
          <mxGeometry relative="1" as="geometry">
            <mxPoint x="420" y="280" as="targetPoint" />
            <Array as="points">
              <mxPoint x="507" y="910" />
              <mxPoint x="940" y="910" />
            </Array>
          </mxGeometry>
        </mxCell>
        <mxCell id="sn_to2yJBPLg6fdQf5K--45" value="x += dx" style="rounded=1;whiteSpace=wrap;html=1;fillColor=#FFFFFF;" vertex="1" parent="1">
          <mxGeometry x="455" y="830" width="103.75" height="20" as="geometry" />
        </mxCell>
      </root>
    </mxGraphModel>
  </diagram>
</mxfile>
